<?xml version="1.0" standalone="no"?><!DOCTYPE svg PUBLIC "-//W3C//DTD SVG 1.1//EN" "http://www.w3.org/Graphics/SVG/1.1/DTD/svg11.dtd"><svg t="1618551270313" class="icon" viewBox="0 0 1075 1024" version="1.1" xmlns="http://www.w3.org/2000/svg" p-id="1970" xmlns:xlink="http://www.w3.org/1999/xlink" width="209.9609375" height="200"><defs><style type="text/css"></style></defs><path d="M797.172622 785.650726l79.416889 105.039644-131.936711-17.931377z" fill="" p-id="1971"></path><path d="M488.417659 479.717452s-85.00717-113.026844-70.989748-222.314193C431.430163 148.108326 515.284385 79.644444 564.072296 63.108741c55.121541-18.682311 181.225244-16.816356 208.311941 139.180563 27.086696 155.996919-122.371793 281.167644-283.966578 277.428148" fill="#ffffff" p-id="1972" data-spm-anchor-id="a313x.7781069.0.i3" class=""></path><path d="M361.638874 401.354904c69.298252-2.988563 219.044978 30.742756 307.435141 106.32154 88.382578 75.578785 170.370844 172.927052 146.029985 275.410489-24.340859 102.475852-83.262578 195.986015-248.513422 198.549808-165.243259 2.563793-315.111348-87.100681-383.006341-169.088948-67.894993-81.980681-103.757748-184.456533-69.874726-273.847941 27.496296-72.51437 99.335585-130.935467 247.929363-137.344948" fill="#FDD93B" p-id="1973"></path><path d="M387.868444 401.8176c-1.585304 59.065837-12.060444 162.512593-60.818014 250.614519-36.856415 66.597926-90.347141 126.976-134.303289 170.469451 22.3232 24.651852 51.685452 49.531259 86.387674 72.142697 40.163556-37.357037 115.059674-115.90163 156.800948-215.707497 35.331793-84.483793 53.612089-187.809185 62.592948-257.046755-40.868978-11.794963-79.894756-18.568533-110.660267-20.472415M712.506785 547.460741a824.737185 824.737185 0 0 0-43.43277-39.784297c-19.630459-16.77843-42.348089-31.364741-66.468978-44.077511 0.470281 57.313659-5.772326 171.910637-55.227733 270.806282-45.177363 90.362311-122.022874 168.15597-169.915734 211.270163 39.30643 15.488948 81.768296 27.109452 126.179556 32.525274 31.061333-28.285156 83.876978-85.492622 137.253926-184.858548 48.5376-90.354726 65.702874-183.69043 71.611733-245.881363M214.759348 491.876504c7.137659 2.146607-1.706667 17.081837-6.401896 31.607466-4.702815 14.510459-11.529481 39.700859-4.702815 53.801719 6.834252 14.078104 25.1904 16.224711 38.001778 8.540918 12.811378-7.698963 38.434133-37.152237 42.704592-41.855051 4.270459-4.687644 8.533333-15.367585 16.224712-10.247586 7.683793 5.12-5.552356 20.919941-16.657067 32.449423-11.097126 11.529481-26.897067 33.723733-52.519822 39.283674-25.61517 5.54477-43.546548-17.081837-43.546549-32.024652 0-14.9504 2.556207-42.272237 9.39046-60.2112 6.826667-17.923793 8.965689-23.900919 17.506607-21.344711" fill="" p-id="1974"></path><path d="M503.360474 540.429274s-15.875793-146.65197 57.912889-222.314193 151.316859-94.344533 224.187733-85.940148c72.855704 8.41197 128.970904 78.324622 123.304771 158.795852-4.672474 66.324859-29.893215 118.639881-99.017008 165.341867-81.601422 55.129126-223.262341 54.173393-306.388385-15.883378" fill="#ffffff" p-id="1975" data-spm-anchor-id="a313x.7781069.0.i1" class=""></path></svg>